<svg width="1400" height="1000" viewBox="0 0 1400 1000" fill="none" xmlns="http://www.w3.org/2000/svg">
  <rect width="1400" height="1000" rx="48" fill="#F7F8FB"/>
  <text x="120" y="120" fill="#101114" font-family="Inter, Arial, sans-serif" font-size="36" font-weight="800">Annexe F - Centrale de mesure</text>
  <text x="120" y="162" fill="#697083" font-family="Inter, Arial, sans-serif" font-size="18">Apercu documentaire pour la plateforme d'annexes</text>
  <rect x="120" y="230" width="1160" height="560" rx="38" fill="white" stroke="#D7DCE6" stroke-width="2"/>
  <rect x="185" y="315" width="360" height="330" rx="34" fill="#111827"/>
  <rect x="225" y="360" width="280" height="76" rx="14" fill="#D1FAE5"/>
  <text x="250" y="408" fill="#065F46" font-family="Inter, Arial, sans-serif" font-size="30" font-weight="800">U 22.0 kV</text>
  <circle cx="285" cy="520" r="34" fill="#374151"/>
  <circle cx="365" cy="520" r="34" fill="#374151"/>
  <circle cx="445" cy="520" r="34" fill="#374151"/>
  <rect x="650" y="330" width="520" height="34" rx="17" fill="#E8EEF7"/>
  <rect x="650" y="405" width="420" height="34" rx="17" fill="#E8EEF7"/>
  <rect x="650" y="480" width="480" height="34" rx="17" fill="#E8EEF7"/>
  <rect x="650" y="555" width="350" height="34" rx="17" fill="#E8EEF7"/>
  <path d="M650 660H1170" stroke="#D7DCE6" stroke-width="2"/>
  <text x="650" y="710" fill="#101114" font-family="Inter, Arial, sans-serif" font-size="22" font-weight="700">Mesures disponibles</text>
  <text x="650" y="750" fill="#697083" font-family="Inter, Arial, sans-serif" font-size="18">Tension, courant, puissance active, facteur de puissance.</text>
</svg>
