<svg width="1600" height="1000" viewBox="0 0 1600 1000" fill="none" xmlns="http://www.w3.org/2000/svg">
  <rect width="1600" height="1000" rx="48" fill="#F8FAFC"/>
  <path d="M160 180H1440" stroke="#D9E0EA" stroke-width="2"/>
  <path d="M160 820H1440" stroke="#D9E0EA" stroke-width="2"/>
  <g stroke="#D9E0EA" stroke-width="1">
    <path d="M240 120V880"/>
    <path d="M400 120V880"/>
    <path d="M560 120V880"/>
    <path d="M720 120V880"/>
    <path d="M880 120V880"/>
    <path d="M1040 120V880"/>
    <path d="M1200 120V880"/>
    <path d="M1360 120V880"/>
  </g>
  <text x="160" y="100" fill="#0F172A" font-family="Inter, Arial, sans-serif" font-size="34" font-weight="700">Annexe B - Schemas electriques</text>
  <text x="160" y="142" fill="#64748B" font-family="Inter, Arial, sans-serif" font-size="18">Plan de principe - poste principal 60/22 kV</text>
  <g transform="translate(170 248)">
    <rect width="250" height="120" rx="22" fill="#FFFFFF" stroke="#CBD5E1" stroke-width="2"/>
    <text x="30" y="54" fill="#0F172A" font-family="Inter, Arial, sans-serif" font-size="22" font-weight="700">Arrivee 60 kV</text>
    <text x="30" y="84" fill="#64748B" font-family="Inter, Arial, sans-serif" font-size="16">Protection HT</text>
  </g>
  <g transform="translate(610 230)">
    <rect width="330" height="160" rx="26" fill="#EFF6FF" stroke="#2563EB" stroke-width="3"/>
    <text x="40" y="70" fill="#1E3A8A" font-family="Inter, Arial, sans-serif" font-size="25" font-weight="800">Transformateur</text>
    <text x="40" y="106" fill="#2563EB" font-family="Inter, Arial, sans-serif" font-size="20">60 / 22 kV</text>
  </g>
  <g transform="translate(1170 248)">
    <rect width="250" height="120" rx="22" fill="#FFFFFF" stroke="#CBD5E1" stroke-width="2"/>
    <text x="30" y="54" fill="#0F172A" font-family="Inter, Arial, sans-serif" font-size="22" font-weight="700">Depart 22 kV</text>
    <text x="30" y="84" fill="#64748B" font-family="Inter, Arial, sans-serif" font-size="16">Distribution mine</text>
  </g>
  <path d="M420 308H610" stroke="#2563EB" stroke-width="5" stroke-linecap="round"/>
  <path d="M940 308H1170" stroke="#2563EB" stroke-width="5" stroke-linecap="round"/>
  <g transform="translate(260 590)">
    <rect width="210" height="110" rx="20" fill="#FFFFFF" stroke="#CBD5E1" stroke-width="2"/>
    <text x="28" y="48" fill="#0F172A" font-family="Inter, Arial, sans-serif" font-size="19" font-weight="700">Cellule mesure</text>
    <text x="28" y="76" fill="#64748B" font-family="Inter, Arial, sans-serif" font-size="15">Comptage</text>
  </g>
  <g transform="translate(695 575)">
    <rect width="210" height="140" rx="20" fill="#ECFDF5" stroke="#10B981" stroke-width="3"/>
    <text x="30" y="58" fill="#065F46" font-family="Inter, Arial, sans-serif" font-size="20" font-weight="800">MCC</text>
    <text x="30" y="90" fill="#059669" font-family="Inter, Arial, sans-serif" font-size="16">Commande moteur</text>
  </g>
  <g transform="translate(1130 590)">
    <rect width="210" height="110" rx="20" fill="#FFFFFF" stroke="#CBD5E1" stroke-width="2"/>
    <text x="28" y="48" fill="#0F172A" font-family="Inter, Arial, sans-serif" font-size="19" font-weight="700">SCADA</text>
    <text x="28" y="76" fill="#64748B" font-family="Inter, Arial, sans-serif" font-size="15">Supervision</text>
  </g>
  <path d="M800 390V575" stroke="#10B981" stroke-width="4" stroke-linecap="round"/>
  <path d="M470 645H695" stroke="#10B981" stroke-width="4" stroke-linecap="round"/>
  <path d="M905 645H1130" stroke="#10B981" stroke-width="4" stroke-linecap="round"/>
</svg>
